<?xml version="1.0" encoding="UTF-8" standalone="no"?>
<!-- Created with Inkscape (http://www.inkscape.org/) -->

<svg
   version="1.1"
   id="svg2708"
   width="40"
   height="40"
   viewBox="0 0 1244.1599 619.29694"
   sodipodi:docname="dd2.svg"
   inkscape:version="1.2.2 (732a01da63, 2022-12-09, custom)"
   xmlns:inkscape="http://www.inkscape.org/namespaces/inkscape"
   xmlns:sodipodi="http://sodipodi.sourceforge.net/DTD/sodipodi-0.dtd"
   xmlns="http://www.w3.org/2000/svg"
   xmlns:svg="http://www.w3.org/2000/svg">
  <defs
     id="defs2712" />
  <sodipodi:namedview
     id="namedview2710"
     pagecolor="#ffffff"
     bordercolor="#000000"
     borderopacity="0.25"
     inkscape:showpageshadow="2"
     inkscape:pageopacity="0.0"
     inkscape:pagecheckerboard="0"
     inkscape:deskcolor="#d1d1d1"
     showgrid="false"
     inkscape:zoom="0.85741877"
     inkscape:cx="609.97032"
     inkscape:cy="290.40652"
     inkscape:window-width="1920"
     inkscape:window-height="1031"
     inkscape:window-x="0"
     inkscape:window-y="25"
     inkscape:window-maximized="1"
     inkscape:current-layer="layer1" />
  <g
     inkscape:groupmode="layer"
     id="layer1"
     inkscape:label="Layer 1"
     transform="translate(-47.456002,-85.849397)">
    <path
       style="fill:#000000;stroke-width:1.33333"
       d="m 1130,703.16625 c -2.9333,-1.12753 -6.6833,-2.37113 -8.3333,-2.76358 -1.9803,-0.471 -3,-1.70574 -3,-3.63255 0,-4.55289 5.3994,-19.49463 9.3476,-25.86741 3.3963,-5.48204 13.474,-13.55146 16.9393,-13.56367 2.0103,-0.007 10.6959,-7.52615 12.4243,-10.75559 2.0147,-3.76446 7.9555,-34.6063 7.9555,-41.30116 0,-12.22025 -6.7176,-30.20988 -16.1444,-43.23493 -16.9649,-23.44023 -31.4923,-47.48184 -37.5567,-62.15304 -2.5731,-6.22507 -12.033,-16.16851 -14.4864,-15.22703 -2.6671,1.02344 -5.6998,16.91032 -5.345,27.99938 0.5315,16.608 1.3465,21.59909 4.9327,30.2073 5.0402,12.09836 7.175,20.65624 6.378,25.56782 -0.7515,4.63046 -3.5027,8.82401 -15.7782,24.04962 -4.4,5.45742 -10.4,14.25363 -13.3334,19.54716 -2.9333,5.29352 -8.4833,14.93418 -12.3333,21.42368 -7.4778,12.60439 -8.8949,19.52278 -5.0424,24.61624 3.3368,4.41172 2.5436,11.98514 -1.7598,16.80146 l -3.8021,4.25536 -56.43724,0.3171 -56.4372,0.31712 -3.89762,-4.17241 c -3.3328,-3.56777 -3.79524,-4.93563 -3.19118,-9.43919 1.54261,-11.501 16.73241,-24.94568 33.99042,-30.08533 4.99344,-1.48712 10.36086,-4.06832 11.92758,-5.73603 3.43553,-3.65694 20.77597,-38.14404 23.00004,-45.74297 3.2845,-11.22251 -0.61687,-45.34937 -8.48644,-74.23323 -1.7442,-6.40178 -2.91291,-13.00178 -2.59712,-14.66666 0.5018,-2.64558 -9.45912,-20.01655 -20.27646,-35.36038 -2.96782,-4.2097 -5.01549,-3.79693 -13.22881,2.66667 -13.82435,10.87929 -32.07591,20.67839 -51.74283,27.78023 -6.0491,2.18437 -13.10298,5.36724 -15.67528,7.07304 -6.91612,4.58637 -24.65348,10.1472 -38.67691,12.12558 -3.3,0.46555 -10.4877,1.80163 -15.97268,2.96906 -8.21782,1.7491 -15.02181,1.96816 -38.66666,1.24493 -31.08668,-0.95084 -44.4288,-2.28356 -64.02733,-6.39555 -6.96666,-1.46168 -15.60993,-2.99933 -19.20726,-3.417 -3.65155,-0.42397 -9.83551,-2.60954 -14,-4.94798 -11.64806,-6.5406 -22.32222,-10.213 -25.80899,-8.87948 -4.23153,1.61836 -7.23267,5.33342 -9.83936,12.18004 -1.93804,5.09036 -2.29249,12.18802 -2.49364,49.9338 -0.21649,40.6265 -0.45427,44.7667 -3.10131,54 -1.57674,5.5 -3.72693,13.6 -4.77818,18 -1.05124,4.4 -2.6438,11 -3.53902,14.66666 -2.02209,8.28212 -2.01516,18.70618 0.0199,30 2.26219,12.55402 0.14252,17.89707 -9.37971,23.64351 -6.6012,3.98367 -8.10077,4.33993 -17.87246,4.24616 -11.27546,-0.10813 -25.77741,1.75268 -38.08747,4.88735 -11.37607,2.89682 -28.42334,2.46386 -37.24587,-0.94595 -6.33201,-2.44727 -10.01504,-2.82355 -26.97316,-2.75581 l -19.63983,0.0784 -2.82876,-3.97263 c -3.11614,-4.37623 -4.68004,-12.52477 -3.39014,-17.66411 0.90501,-3.60589 9.59524,-12.76309 14.45965,-15.23668 1.6714,-0.84992 6.33891,-2.76344 10.37224,-4.25226 9.15791,-3.38047 8.77803,-3.08011 16.05463,-12.6947 9.71928,-12.8421 10.66225,-14.8576 12.664,-27.06792 2.43285,-14.83998 2.44186,-24.25096 0.0293,-30.57176 -1.05529,-2.76484 -2.89892,-9.82698 -4.09692,-15.69365 -1.19801,-5.86667 -4.507,-17.26667 -7.35329,-25.33333 -2.84631,-8.06667 -5.78642,-17.07038 -6.5336,-20.00824 -1.70796,-6.71566 -5.99947,-13.1338 -19.30016,-28.86431 -12.77564,-15.10953 -17.74424,-22.69296 -23.45198,-35.79407 -11.0885,-25.4517 -16.67974,-32.56832 -38.4758,-48.9725 -5.53123,-4.16291 -12.93553,-9.99711 -16.45403,-12.96488 -12.4593,-10.50916 -15.39266,-12.6596 -19.21614,-14.08734 -2.12628,-0.79397 -7.34778,-3.24257 -11.60332,-5.44132 -4.25555,-2.19874 -11.679,-5.21517 -16.49659,-6.70317 -11.48367,-3.54693 -16.78473,-8.97297 -22.30493,-22.83079 -2.48915,-6.2487 -4.76854,-6.31182 -9.08056,-0.25144 -1.85826,2.61172 -8.25408,8.32712 -14.21295,12.70091 -5.95887,4.37379 -10.8343,8.48893 -10.8343,9.14476 0,1.8628 -22.23861,17.68781 -33.33333,23.72003 -23.38075,12.71213 -37.69324,19.01908 -43.16037,19.01908 -1.83299,0 -5.02176,0.64361 -7.08616,1.43025 -2.06442,0.78665 -13.05347,2.83853 -24.42014,4.55975 -20.44183,3.09544 -24.74375,4.53845 -34.96643,11.72888 -1.86534,1.31205 -7.211,3.07216 -11.87922,3.91134 -5.88159,1.05731 -9.83246,2.67884 -12.86742,5.28112 -2.40884,2.06543 -5.70884,3.74659 -7.33333,3.73592 -4.61747,-0.0304 -14.65532,-3.89818 -17.84584,-6.87646 -4.30341,-4.01714 -7.99567,-13.94763 -8.98421,-24.16344 -0.72968,-7.54062 -1.98699,-10.9958 -7.50009,-20.61072 -7.07698,-12.34234 -7.02964,-12.16891 -7.18665,-26.32998 -0.0939,-8.47072 -0.53478,-9.92848 -4.77014,-15.77273 -2.56667,-3.54167 -7.60323,-9.54167 -11.192358,-13.33333 C 83.254177,326.72611 75.399446,316.86499 67.79624,305.15307 57.005476,288.53107 53.254932,278.90621 49.313897,257.72264 46.965448,245.0994 46.923552,243.16471 48.736445,231.05597 c 2.191347,-14.63654 3.610539,-19.69292 7.970998,-28.39957 4.175541,-8.33741 9.655741,-13.54948 13.726083,-13.05451 2.970656,0.36126 3.562005,1.59979 6.38852,13.38015 8.283301,34.52323 32.305724,62.19996 63.462974,73.11705 4.45529,1.56107 5.2387,1.47599 7.81493,-0.84872 2.5656,-2.3151 2.80096,-3.62329 2.26396,-12.5837 -0.40944,-6.83196 -1.75656,-12.74563 -4.25224,-18.66667 -11.97523,-28.41141 -13.33673,-37.26963 -6.54895,-42.60889 8.4709,-6.6632 22.46739,-0.96498 41.95955,17.08248 7.07057,6.54652 15.96863,14.36349 19.77344,17.37102 8.18814,6.47235 8.73936,6.33038 18.46327,-4.75529 6.00429,-6.84516 7.33013,-9.6036 12.98856,-27.023 6.80117,-20.93736 9.09453,-26.44856 15.28557,-36.73299 3.7171,-6.17477 3.95102,-7.30613 3.17034,-15.33333 -1.20223,-12.36168 -0.87136,-26.94637 0.7054,-31.09355 1.99984,-5.26001 11.92476,-15.4678 17.17001,-17.65941 2.51908,-1.05254 7.09461,-1.91371 10.16785,-1.91371 7.57826,0 12.77334,5.27166 13.75204,13.95475 0.57271,5.08104 0.18544,6.69881 -2.21534,9.25433 -1.9313,2.05576 -3.00028,5.046 -3.17974,8.89455 -0.3377,7.24248 1.87063,8.02451 8.99928,3.18687 2.8145,-1.90998 8.33022,-4.67479 12.25716,-6.14405 6.67931,-2.49905 7.1399,-2.95964 7.1399,-7.13995 0,-2.82119 -1.22886,-5.92898 -3.33334,-8.43 -1.83333,-2.1788 -3.33333,-4.82852 -3.33333,-5.88828 0,-2.72109 6.07175,-5.18753 14.75165,-5.99236 7.86494,-0.72927 12.37489,0.80584 20.73279,7.05708 6.82975,5.10826 10.01655,5.25267 18.01894,0.8165 3.93981,-2.18406 10.46329,-4.8941 14.49662,-6.02231 20.02334,-5.600952 60.60824,-11.354159 67.64214,-9.588765 1.89137,0.474705 13.93258,0.823384 26.75824,0.77484 20.04793,-0.07588 26.70597,-0.686035 47.45951,-4.349298 22.39421,-3.952862 26.30984,-4.260656 54.14012,-4.255749 44.81565,0.0079 71.47324,4.536703 104.52467,17.757482 9.45522,3.78215 27.75522,9.62556 40.66666,12.98536 23.33675,6.07267 23.6367,6.11277 50.80867,6.79213 31.37974,0.78457 57.70042,-0.99489 84,-5.67896 9.9,-1.76324 20.70001,-3.57685 24.00001,-4.03024 8.04592,-1.10545 40.06954,-9.16797 49.82494,-12.54432 16.40267,-5.676979 49.2938,-13.5556 66.84172,-16.011015 22.67358,-3.172632 78.12068,2.654387 98.66668,10.369036 16.1014,6.045789 57.1918,22.199639 70,27.519119 7.7,3.19795 19.1605,7.61822 25.4678,9.82283 6.3073,2.20461 18.0073,7.35524 26,11.44584 12.2741,6.28177 16.6367,9.45806 28.0755,20.44102 11.9963,11.51815 14.2429,14.43188 19.6667,25.50735 3.3678,6.87708 6.1233,13.45429 6.1233,14.61603 0,1.16173 2.698,7.58508 5.9956,14.2741 3.7732,7.65402 7.3517,17.80402 9.6544,27.38398 3.5389,14.72312 3.6606,16.46776 3.7118,53.2221 0.043,30.5526 0.5348,40.87444 2.5118,52.66667 3.9678,23.66617 1.4583,41.28755 -10.633,74.66667 -2.3908,6.6 -4.7762,14.4 -5.3009,17.33333 -1.1389,6.36659 -2.7461,8.66667 -6.056,8.66667 -3.2034,0 -5.217,-3.92068 -5.217,-10.15804 0,-2.75002 -1.3371,-7.73947 -2.9712,-11.08767 -1.9797,-4.05616 -3.1407,-9.31343 -3.4791,-15.75429 -0.8005,-15.2372 -2.543,-13.54594 -9.9598,9.66666 -10.1651,31.81443 -11.8032,40.04258 -10.352,52 1.745,14.37867 5.0533,23.28968 14.165,38.15458 11.5943,18.91492 15.2638,26.3618 15.2638,30.97628 0,8.23424 -6.6576,24.7215 -13.4565,33.32425 -7.4372,9.41059 -10.6086,15.61579 -16.1222,31.54489 -3.1537,9.11143 -9.088,31.33728 -9.088,34.03752 0,0.33051 3,3.91362 6.6667,7.96248 3.6666,4.04887 6.6666,8.43522 6.6666,9.74746 0,1.31222 0.7008,3.0866 1.5572,3.94305 2.2538,2.2538 5.0661,10.97188 5.0894,15.7772 0.024,4.86052 -2.4299,12.53229 -4.008,12.53229 -0.6054,0 -3.0143,1.61028 -5.3533,3.57839 l -4.2527,3.5784 -8.8496,-1.90497 c -11.6273,-2.50291 -52.521,-2.04096 -60.4262,0.68257 -3.7065,1.277 -6.4542,1.48099 -8.6588,0.64281 -1.9953,-0.75861 -5.3696,-0.73381 -8.8303,0.0649 -7.5016,1.73136 -9.9788,1.60813 -16.2677,-0.80919 z"
       id="path3189" />
    <path
       id="path3216"
       style="display:inline;fill:#917c6f;stroke-width:1.33333"
       d="M 566.66694 94.706819 C 548.07482 94.743049 537.5389 95.957623 501.33296 102.23221 C 491.71328 103.89933 478.8832 104.48149 447.99311 104.65604 C 400.39802 104.92499 395.87803 105.65123 372.17475 116.82205 C 357.44202 123.76527 357.04 124.06979 357.85639 127.65018 C 360.12065 137.58037 362.62214 156.17971 362.6435 163.24588 C 362.6812 175.73087 355.01688 188.52486 347.77046 188.07596 C 345.0215 187.90566 331.63421 186.95695 329.00092 186.74588 C 326.584 186.55216 328.37892 184.03863 332.7978 181.43143 C 335.59688 179.77993 339.43657 178.72487 342.01069 178.89823 C 347.54025 179.27059 349.98495 177.25561 354.27241 168.79471 C 357.23439 162.94957 357.57338 160.96858 356.90522 153.37674 C 356.48358 148.58594 354.91624 139.86644 353.4228 133.99979 C 351.09087 124.83941 349.94554 122.64186 345.30561 118.44119 C 338.80907 112.55968 329.66704 109.11104 324.3896 110.54862 C 320.21275 111.68638 320.13916 112.32135 322.51264 126.6658 C 325.41898 144.23059 323.49693 155.66334 316.69038 161.31229 C 312.40696 164.86719 311.89638 167.50882 314.78217 171.17752 C 318.04773 175.32901 317.17017 177.33377 312.08491 177.33377 C 306.96992 177.33377 304.9807 174.46369 304.28608 166.08768 C 303.70418 159.07066 303.7624 158.94193 310.51655 152.15213 C 317.2514 145.38174 318.10779 143.56947 316.52436 139.44315 C 315.46896 136.69283 313.07687 136.76908 309.63569 139.6658 C 308.11116 140.94913 304.95722 143.05795 302.62592 144.35135 C 299.14356 146.28335 298.53114 147.28156 299.20014 149.94705 C 300.37167 154.61479 297.48352 155.64866 286.53022 154.4783 C 280.8601 153.87245 275.72072 154.00721 273.56733 154.81815 C 267.29955 157.17849 257.47612 164.55562 256.0146 167.99979 C 255.23661 169.83312 252.25837 175.61386 249.39546 180.84549 C 243.53248 191.55934 232.7073 222.70112 230.80366 234.33182 C 229.07823 244.87376 225.58226 252.02502 217.16889 262.22049 C 206.85196 274.72272 203.73257 275.88627 201.97553 267.88651 C 201.48221 265.64045 199.41747 261.89699 197.38764 259.56815 C 195.35782 257.23928 191.11591 249.4538 187.96186 242.26737 C 182.73277 230.35301 176.95678 222.6658 173.23139 222.6658 C 170.90287 222.6658 171.37232 223.61692 184.60053 245.6658 C 192.97585 259.62584 198.80978 271.7539 197.53022 272.54471 C 195.29046 273.92895 192.60357 270.26319 187.2021 258.45291 C 184.06943 251.60341 179.63748 243.90044 177.35249 241.33377 C 175.06749 238.76711 172.04858 235.16711 170.6435 233.33377 C 169.23841 231.50044 168.06829 230.70777 168.04389 231.57205 C 168.01949 232.43634 168.90092 234.04237 170.00092 235.14237 C 171.10092 236.24235 172.00092 237.73109 172.00092 238.45096 C 172.00092 239.17084 173.79954 243.56351 175.99897 248.21268 C 180.57069 257.87645 180.94491 260.37722 177.72749 259.7576 C 175.33879 259.29757 170.68236 248.27986 170.6728 243.06619 C 170.6698 241.45265 169.89948 239.65263 168.96186 239.06619 C 168.02426 238.47975 166.16325 235.51747 164.8271 232.48416 C 163.49091 229.45088 160.65838 225.68309 158.53217 224.11112 C 156.1105 222.32068 154.66694 220.04206 154.66694 218.01151 C 154.66694 214.57945 150.05211 209.33377 147.03413 209.33377 C 145.67216 209.33377 145.57308 209.95558 146.62006 211.9119 C 148.56693 215.54964 148.33648 217.33377 145.91889 217.33377 C 142.36851 217.33377 144.848 229.16015 149.41303 233.99979 C 152.26334 237.0215 153.71007 240.60786 155.331 248.6658 C 156.51113 254.53246 159.19534 262.93379 161.29585 267.33377 C 163.39634 271.73377 165.50508 276.68495 165.98139 278.33573 C 167.02424 281.95 172.00092 285.15831 172.00092 282.21658 C 172.00092 281.18403 170.76018 277.53629 169.24506 274.11112 C 167.72996 270.68593 165.61049 264.50951 164.53608 260.38455 C 163.46166 256.25961 160.87639 249.53427 158.78999 245.44119 C 154.60309 237.22748 149.78787 221.76754 151.03022 220.52518 C 152.52019 219.03521 154.66694 221.4877 154.66694 224.68143 C 154.66694 226.43665 157.15624 232.55114 160.19819 238.26932 C 163.24012 243.98747 167.99977 255.56648 170.77631 263.99979 C 175.07287 277.04979 176.55144 279.94445 180.70796 283.44119 C 185.26835 287.27773 185.44557 287.69771 183.36811 289.77518 C 182.14449 290.99879 179.16223 291.99979 176.74116 291.99979 C 174.3201 291.99979 169.66546 293.1831 166.39741 294.62869 C 160.60087 297.19278 160.39802 297.49105 158.1435 306.83182 C 156.87242 312.09808 154.06719 319.90434 151.90913 324.17948 C 148.06721 331.79026 147.23575 332.41675 139.33296 333.64432 C 137.35593 333.95142 136.66694 335.08504 136.66694 338.02908 C 136.66694 343.15306 134.7598 342.73002 126.08686 335.67948 C 110.31433 322.85743 99.682628 310.65664 84.123971 287.52518 C 76.392193 276.03015 73.332955 269.66911 73.332955 265.08963 C 73.332955 262.46511 73.573111 262.3359 75.264596 264.04666 C 76.326306 265.12048 79.651058 270.70264 82.653268 276.45096 C 85.655478 282.19929 90.139949 289.09997 92.620064 291.78494 C 95.100183 294.46992 99.361547 299.66713 102.08881 303.33377 C 108.83845 312.40825 123.86387 327.77364 128.25678 330.09354 C 134.52975 333.40625 133.58929 329.79581 126.66889 324.00174 C 123.00153 320.93123 120.00092 317.50181 120.00092 316.38065 C 120.00092 314.11442 120.45427 314.36585 129.9228 321.88065 C 134.28083 325.33944 135.03008 325.54095 136.82319 323.74783 C 138.6163 321.95474 138.46309 321.29572 135.41694 317.67557 C 130.73404 312.11027 131.11311 311.49419 137.28022 314.64041 C 142.67111 317.39064 148.00092 318.19357 148.00092 316.25565 C 148.00092 315.66248 147.11862 314.01118 146.04194 312.58768 C 143.32006 308.98902 143.52384 308.27879 147.081 308.95877 C 151.73428 309.84831 153.2749 306.76728 153.84272 295.43338 C 154.42828 283.74571 153.58309 282.6582 145.78803 285.05057 C 141.55979 286.34827 140.29052 286.00789 131.57319 281.25565 C 122.62385 276.37693 116.00092 274.59799 116.00092 277.07205 C 116.00092 278.64896 124.62053 286.73275 128.21186 288.52323 C 131.79165 290.30793 133.20422 294.6658 130.2021 294.6658 C 129.10528 294.6658 123.81008 291.67108 118.43647 288.00955 C 103.69607 277.96553 101.75636 278.97691 111.33296 291.71658 C 114.63294 296.10654 117.33296 300.06605 117.33296 300.51541 C 117.33296 300.96477 115.9617 301.33377 114.28413 301.33377 C 110.17828 301.33377 99.850989 290.62186 94.985299 281.31619 C 92.87165 277.27382 89.236066 271.33461 86.905221 268.11698 C 84.574375 264.89934 82.666939 261.55227 82.666939 260.67948 C 82.666939 259.80667 80.869103 255.84779 78.672799 251.88065 C 75.390866 245.95252 74.820334 243.68566 75.467721 239.15799 C 75.965195 235.67876 75.698159 233.30413 74.741158 232.71268 C 73.907734 232.19758 73.558661 230.72583 73.965768 229.44315 C 74.372872 228.16047 73.79708 224.53626 72.686471 221.38846 C 71.575864 218.24065 70.666939 213.36199 70.666939 210.54666 C 70.666939 206.91909 69.943798 205.04095 68.184518 204.0994 C 63.943665 201.82976 61.21676 205.2088 60.143502 214.06619 C 59.614702 218.43028 58.552219 223.19913 57.782174 224.6658 C 56.877818 226.38828 56.753262 231.03585 57.428658 237.78885 C 58.284597 246.34701 59.975172 251.66691 66.747018 267.12088 C 77.31046 291.22767 85.426336 302.71135 108.36225 325.99979 L 126.74702 344.6658 L 123.22944 347.49783 C 118.79831 351.06509 120.86461 352.6236 127.57319 350.77127 C 130.29181 350.02061 132.77748 349.66698 133.09663 349.98612 C 133.4158 350.30528 130.01293 354.26426 125.53413 358.78494 C 113.97294 370.45422 113.30878 375.99756 122.03217 387.99979 C 126.63638 394.33454 128.52672 399.99368 130.05171 411.99979 C 130.564 416.0331 131.90197 421.6438 133.02436 424.46854 C 135.61757 430.99488 144.08537 437.33377 150.21186 437.33377 L 154.69038 437.33377 L 153.86616 430.32205 C 152.59972 419.54669 155.8181 415.01187 171.31538 405.7244 C 178.16973 401.6166 180.27717 401.20842 183.55366 403.35526 C 186.50165 405.28683 187.35796 405.22395 194.706 402.54471 C 199.08395 400.94843 202.66694 399.24208 202.66694 398.75174 C 202.66694 396.02432 221.57718 379.99979 224.79585 379.99979 C 225.26242 379.99979 223.45323 382.42347 220.77631 385.38651 C 218.0994 388.34952 216.26527 391.35084 216.70014 392.05448 C 217.135 392.75809 219.85502 393.33377 222.74506 393.33377 C 225.63511 393.33377 228.00092 393.87025 228.00092 394.52713 C 228.00092 397.52191 214.4523 404.28653 206.35249 405.33573 C 201.75882 405.93074 195.76838 407.37427 193.04194 408.54276 C 190.31549 409.71126 185.98458 410.6658 183.41694 410.6658 C 177.94075 410.6658 168.77951 415.10147 165.96967 419.11307 C 163.15908 423.12578 163.48205 427.65664 166.64936 428.6619 C 171.05656 430.06069 181.13756 427.88221 185.7021 424.54471 C 192.44975 419.61097 195.63534 418.54314 212.00092 415.7283 C 221.86484 414.03174 230.1798 411.70777 235.31342 409.21268 C 239.7025 407.07945 244.50186 405.31861 245.97944 405.30057 C 249.71971 405.25497 262.11672 400.9811 272.65522 396.1033 C 277.53019 393.84691 281.74378 391.99979 282.0185 391.99979 C 282.29323 391.99979 291.51658 385.98599 302.5146 378.63651 C 325.36498 363.36663 333.00135 355.64426 338.10249 342.64237 C 340.54982 336.40449 342.78228 333.05962 345.94233 330.89432 C 354.92606 324.73858 354.32355 303.91847 344.04389 265.33377 C 340.5324 252.15337 340.59428 249.54763 344.45991 248.07791 C 346.93174 247.13813 347.90872 245.28344 349.12592 239.22244 C 351.4129 227.83475 351.02633 220.57396 347.38764 206.60721 C 344.11907 194.06111 344.39994 189.81686 348.20014 194.30252 C 350.94344 197.54062 358.29535 223.00366 359.08491 231.99979 C 359.6644 238.6024 359.39774 239.60265 356.40522 242.0408 C 354.51823 243.57823 352.58629 247.03636 351.93452 250.0408 C 351.30311 252.9514 350.41878 256.83248 349.96967 258.6658 C 348.94813 262.83585 360.2392 292.47868 363.07319 293.06619 C 365.50251 293.5698 366.75545 287.62524 365.29389 282.52908 C 364.41109 279.45098 364.67716 278.63089 366.77631 277.96463 C 370.01918 276.93539 372.37543 272.61768 371.3896 269.51151 C 370.63366 267.1298 373.86469 249.64883 378.05561 233.44315 C 379.92719 226.20605 380.02418 223.63276 378.68256 216.77518 C 377.81004 212.31524 376.59629 207.46646 375.9853 205.99979 C 374.25614 201.84903 373.01178 187.13979 374.52046 188.68533 C 375.22663 189.4088 376.18609 192.61114 376.65327 195.80252 C 377.79855 203.62636 379.70939 208.33792 381.331 207.33573 C 382.96412 206.3264 383.08741 197.31521 381.52631 193.08768 C 379.74071 188.25208 378.36889 177.82021 379.71772 179.33377 C 380.37122 180.06711 382.33423 185.46713 384.07905 191.33377 C 390.30186 212.2568 387.61635 241.33326 375.53999 283.77713 C 373.30098 291.64639 371.77268 308.00705 371.28413 329.33182 C 371.10772 337.03271 370.54187 345.78472 370.02827 348.78104 C 369.17077 353.78364 369.44087 354.51921 373.31733 357.78104 C 375.63915 359.73472 378.10019 361.33377 378.78803 361.33377 C 379.47587 361.33377 382.23143 359.32464 384.91108 356.86893 L 389.78413 352.40408 L 387.89155 343.86893 C 386.59136 338.00257 386.04088 327.41195 386.12983 309.99979 L 386.25874 284.6658 L 393.22553 262.6658 C 404.32658 227.608 405.34647 223.88434 406.69819 213.49393 C 407.69256 205.85036 407.53447 201.74101 405.98921 195.07791 C 403.6757 185.10201 403.59371 183.99979 405.16889 183.99979 C 407.01899 183.99979 411.51709 195.71749 413.99702 206.99979 C 415.82201 215.30238 416.74703 217.33377 418.70991 217.33377 C 420.05355 217.33377 421.45371 216.28312 421.81928 214.99979 C 424.09897 206.99722 425.57344 195.51194 425.84467 183.64432 C 426.03864 175.15722 426.87846 168.48804 428.06733 165.99979 C 429.8909 162.18308 430.00858 162.63575 430.65522 175.89237 C 431.10318 185.07584 431.88096 189.96856 432.95014 190.32205 C 434.78816 190.92974 435.10731 189.73452 438.00483 171.33377 C 441.42471 149.61579 447.18433 131.45638 446.03999 145.99979 C 445.69376 150.39977 445.03195 161.49915 444.57124 170.6658 C 443.48565 192.26532 441.10187 202.45819 434.35249 214.33377 C 431.33081 219.65044 428.47343 223.99979 428.00288 223.99979 C 425.4679 223.99979 415.44086 234.52659 412.55952 240.21268 C 410.72569 243.83154 408.36363 247.12142 407.31147 247.52518 C 406.2593 247.92892 404.44729 250.1509 403.28413 252.46268 C 397.8778 263.20773 391.3893 287.8626 393.4228 289.93338 C 395.23926 291.78314 394.94346 299.68561 393.03413 300.32205 C 389.68036 301.43997 392.82676 338.23635 397.41694 351.57791 C 401.59982 363.73562 410.7817 374.73389 427.33296 387.41385 C 432.46628 391.34652 439.96761 397.29157 444.00092 400.62479 C 453.77413 408.70154 459.18493 411.03025 468.00092 410.94901 C 472.03426 410.91181 478.98555 411.4818 483.44819 412.21658 C 489.97349 413.29101 492.51289 413.15526 496.41889 411.52323 C 499.64215 410.17647 501.56144 409.95826 502.12788 410.87479 C 503.46478 413.03793 499.91847 415.73633 491.39741 419.0369 C 484.4683 421.72084 483.33125 422.69167 481.64546 427.37088 C 479.77731 432.55618 479.83623 432.83056 484.47553 440.49002 C 487.08165 444.7927 491.11451 452.89272 493.43647 458.49002 C 500.71023 476.0241 504.08069 481.65027 514.52241 493.68338 C 538.50356 521.31947 547.43306 535.89612 546.97358 546.6658 C 546.29473 562.57747 546.51433 569.14915 547.89936 574.29276 C 549.64187 580.76389 550.93378 581.88908 555.34858 580.78104 C 559.01483 579.86087 561.31307 573.53689 561.32514 564.33377 C 561.33314 558.66338 563.00161 556.80697 564.52436 560.77518 C 564.96949 561.93515 565.33296 567.52189 565.33296 573.18924 C 565.33296 582.17945 564.7585 584.67264 560.82905 592.74588 C 557.0641 600.48112 556.18047 604.07718 555.43647 614.6658 C 554.10427 633.62562 552.99032 637.20644 546.8271 642.32596 C 543.89737 644.75958 539.30415 649.73854 536.62202 653.39237 C 532.75833 658.65575 529.76413 660.95394 522.206 664.45096 C 516.95919 666.87857 510.41694 670.99071 507.66694 673.58963 C 503.50622 677.52178 502.66694 679.21135 502.66694 683.65994 C 502.66694 686.60023 503.46083 689.66565 504.43061 690.47049 C 505.50206 691.35972 511.90899 691.87048 520.76264 691.77323 C 528.77618 691.68523 536.53428 691.85074 538.00092 692.14041 C 540.3533 692.60497 540.71357 691.85516 541.06538 685.7869 C 541.41669 679.72747 540.98042 678.35774 537.39936 674.27908 C 530.5088 666.43116 532.65536 663.56927 539.88569 670.96463 C 543.22254 674.37764 544.54339 674.97753 546.2978 673.87088 C 549.82187 671.64796 549.77197 669.64973 546.09858 665.97635 C 542.13101 662.00877 541.63565 659.72027 545.00092 660.90799 C 549.32502 662.43408 553.28642 667.06328 554.13374 671.57987 C 554.78542 675.05356 554.23414 677.18864 551.69428 681.03299 C 549.88972 683.76433 548.00392 688.19467 547.50288 690.87674 C 546.66432 695.36569 546.88627 695.85127 550.29585 696.99783 C 555.55296 698.76569 565.36985 697.52468 569.58881 694.55838 C 572.00065 692.86266 574.42188 692.28477 576.97163 692.79471 C 580.05805 693.41199 581.09328 692.93892 582.52827 690.2576 C 583.49843 688.44485 585.72668 686.30816 587.47944 685.50955 C 589.23221 684.71094 590.66694 683.34122 590.66694 682.46658 C 590.66694 679.98042 586.50377 675.99979 583.90327 675.99979 C 579.7823 675.99979 577.33296 674.45602 577.33296 671.85721 C 577.33296 669.92113 578.3006 669.33377 581.4853 669.33377 C 587.66596 669.33377 595.87936 674.53639 598.831 680.32205 C 600.73703 684.05819 602.21931 685.33377 604.65913 685.33377 C 610.38448 685.33377 612.31671 679.15995 613.45405 657.2244 C 614.00846 646.53124 614.87517 635.58056 615.37983 632.89041 C 616.12311 628.92846 615.89508 627.99979 614.18256 627.99979 C 613.01981 627.99979 611.05634 629.95044 609.81928 632.33377 C 606.36538 638.98821 605.97488 634.17758 609.33491 626.36698 C 610.95015 622.61226 614.21751 616.71038 616.59663 613.25174 C 619.8257 608.55748 621.7227 603.29288 624.07905 592.48221 C 626.91962 579.44997 627.20453 575.19684 626.92085 549.99979 C 626.59265 520.84794 627.85626 500.00811 631.23139 478.92362 C 633.02848 467.6972 633.01509 466.09003 631.08881 462.05057 C 629.07219 457.82165 629.11084 457.34143 631.81342 452.96854 C 633.3828 450.42923 634.66694 447.05192 634.66694 445.46268 C 634.66694 443.87344 635.65162 441.07182 636.85444 439.23612 C 638.76102 436.32631 638.8407 434.69145 637.4853 426.48416 C 636.01132 417.55889 636.10143 416.71221 639.20991 410.20096 C 641.01322 406.4236 642.89329 402.13246 643.38764 400.6658 L 644.28608 397.99979 L 645.41694 400.6658 C 646.0387 402.13246 646.49316 412.29252 646.42671 423.24198 C 646.31084 442.3413 646.42647 443.24737 649.29975 445.57401 C 651.21907 447.12816 654.48381 447.99979 658.3896 447.99979 C 664.22222 447.99979 664.92422 447.55476 674.71967 437.6658 C 680.34926 431.98248 685.5958 426.13808 686.37788 424.67752 C 687.15996 423.21696 688.1862 422.40772 688.65717 422.87869 C 689.60527 423.82679 684.18344 435.09765 679.04585 442.86112 C 674.94448 449.05869 660.88455 458.37956 652.37983 460.53885 C 647.08292 461.88371 645.93241 462.72782 645.60053 465.51541 C 644.91656 471.26048 648.97804 474.04846 663.60835 477.86893 C 671.09316 479.82346 682.19449 483.4169 688.27631 485.85526 C 694.35815 488.29361 701.73361 490.70272 704.66694 491.20877 C 707.60028 491.71484 714.57525 493.62332 720.16694 495.45096 C 730.8856 498.95433 735.657 499.93144 759.33296 503.45877 C 784.07142 507.1444 832.63537 504.09448 834.41889 498.74393 C 835.50759 495.47781 854.6713 487.99977 872.1435 484.02323 C 878.45587 482.58658 885.27878 480.78015 887.30561 480.00955 C 889.95417 479.00257 891.50392 479.03408 892.81342 480.12088 C 894.20443 481.27532 894.81528 481.16603 895.39546 479.65408 C 895.81343 478.56485 899.26974 475.99654 903.0771 473.94705 C 937.69943 455.31002 978.04085 415.67732 1000.0634 378.6658 C 1007.7829 365.69227 1013.8768 356.96526 1014.3095 358.26346 C 1014.9522 360.19139 1003.8692 383.25841 996.17866 395.99979 C 992.41629 402.2331 989.33826 407.83393 989.33686 408.4451 C 989.33186 410.63464 996.01673 404.51948 1002.456 396.4451 C 1008.776 388.52031 1012.6205 382.89464 1033.1396 351.55057 L 1042.5986 337.0994 L 1041.7978 320.8826 C 1041.0447 305.6376 1041.2128 304.02729 1044.6083 293.99979 C 1046.5949 288.13312 1049.1919 276.6792 1050.3779 268.54666 L 1052.5341 253.75955 L 1048.9365 245.46463 C 1045.338 237.16737 1042.8824 226.6658 1044.54 226.6658 C 1045.024 226.6658 1047.4347 227.50907 1049.8994 228.53885 C 1053.9317 230.22368 1054.4764 231.10141 1055.329 237.30057 C 1056.2158 243.74899 1058.7449 247.0332 1061.0498 244.7283 C 1061.564 244.21403 1062.2883 240.4357 1062.6591 236.33377 C 1063.4945 227.09164 1065.9762 225.83044 1068.0771 233.57987 C 1070.1479 241.21802 1068.9131 253.27498 1064.8876 264.71658 C 1056.7134 287.9503 1050.6669 308.44225 1050.6669 312.9119 C 1050.6669 319.27823 1054.3324 338.74232 1056.8603 345.79666 C 1057.9514 348.84171 1059.4141 356.13312 1060.1103 361.99979 C 1061.6094 374.63368 1062.8024 380.88868 1066.5439 395.75174 C 1068.0786 401.84818 1069.333 408.61852 1069.333 410.79862 C 1069.333 412.97868 1070.6189 419.89024 1072.1904 426.15604 C 1074.7299 436.28126 1075.9353 438.61107 1083.0244 447.10721 C 1087.4113 452.36485 1097.1889 462.53772 1104.7529 469.71268 C 1122.5748 486.61765 1128.0009 493.9434 1128.0009 501.10526 C 1128.0009 509.72546 1136.1809 525.9452 1151.6533 547.99979 C 1167.4299 570.48803 1174.8383 583.18726 1176.7314 590.99198 C 1177.525 594.26363 1175.9055 606.31887 1171.7587 627.99979 C 1170.9873 632.0331 1169.4997 637.00391 1168.454 639.04471 C 1167.4083 641.08552 1165.3152 646.78487 1163.8037 651.71073 C 1158.7456 668.19483 1154.0848 676.11198 1150.6767 674.00565 C 1149.8843 673.51595 1146.8673 673.51627 1143.9736 674.00565 C 1139.7424 674.7205 1137.6643 676.21035 1133.3564 681.62088 C 1130.4103 685.32104 1128.0009 689.15503 1128.0009 690.14041 C 1128.0009 691.12578 1129.8781 692.90301 1132.1728 694.08963 C 1135.5609 695.84171 1138.8693 696.09679 1149.7841 695.4451 C 1157.1764 695.00374 1163.6169 694.19717 1164.0966 693.65408 C 1166.3716 691.07834 1167.7562 683.79989 1166.6826 680.05643 C 1165.158 674.74064 1167.2963 673.54034 1171.4091 677.40408 L 1174.6201 680.42166 L 1180.4033 674.21073 C 1183.8712 670.48658 1187.3497 667.99979 1189.0927 667.99979 C 1192.9941 667.99979 1192.7541 669.57628 1188.0947 674.56424 C 1183.6245 679.34959 1179.2996 689.58322 1180.4638 692.61698 C 1181.1114 694.30457 1184.0879 694.66776 1197.2919 694.66776 C 1215.0045 694.66776 1214.8954 694.73302 1211.333 686.20682 C 1208.7965 680.13624 1208.8107 679.99979 1211.9443 679.99979 C 1213.6263 679.99979 1215.7986 682.12208 1218.0517 685.96658 C 1222.3323 693.27089 1229.1202 695.98731 1234.4189 692.51541 C 1237.3594 690.58875 1237.5382 689.85165 1236.7001 683.14432 C 1234.9516 669.14962 1233.0716 664.95349 1227.0615 661.6326 C 1220.157 657.81749 1218.3618 653.2347 1220.0205 643.66776 C 1221.2183 636.75931 1226.0292 612.66205 1227.3056 607.17752 C 1227.6669 605.62509 1230.0152 601.37022 1232.5244 597.72244 C 1235.0336 594.0747 1238.7734 587.84517 1240.8349 583.87869 C 1242.8965 579.91223 1246.496 574.14274 1248.8349 571.05838 C 1259.5647 556.90858 1258.1426 546.33905 1241.9638 519.99979 C 1232.3664 504.37522 1231.2961 502.01832 1228.829 491.0701 C 1225.9318 478.21215 1226.0729 463.96092 1229.204 453.30448 C 1235.114 433.19168 1242.8432 407.97628 1245.9501 398.66776 C 1249.9561 386.66524 1255.1757 365.50414 1257.2958 352.66776 C 1258.1436 347.53442 1259.9989 339.39074 1261.4189 334.57205 C 1264.6831 323.49508 1264.9099 297.90468 1261.9267 277.50565 C 1260.0753 264.84647 1258.9928 261.6267 1251.7665 247.33377 C 1247.3176 238.53379 1243.2113 230.73312 1242.6435 229.99979 C 1240.9442 227.80484 1235.0954 213.18455 1232.7861 205.36112 L 1230.6298 198.05643 L 1234.7001 202.6951 C 1236.9391 205.2465 1239.9312 209.89403 1241.3486 213.02323 C 1242.9178 216.48767 1245.7141 219.76684 1248.499 221.40994 C 1251.1427 222.96978 1253.4457 225.59934 1253.958 227.64041 C 1254.4454 229.58238 1256.0049 232.79954 1257.4228 234.7908 C 1258.8407 236.78207 1260.0009 238.89393 1260.0009 239.48221 C 1260.0009 240.07048 1262.3568 243.91084 1265.2373 248.01737 L 1270.4755 255.48416 L 1271.7978 278.07596 C 1273.8312 312.8142 1273.6771 320.78633 1270.708 334.57205 C 1267.5083 349.42806 1267.2007 367.08979 1269.9208 379.73807 C 1270.977 384.64949 1272.2325 393.94737 1272.7119 400.40213 C 1273.7147 413.90247 1275.809 415.25194 1278.1259 403.89041 C 1284.6077 372.10502 1284.6322 371.82138 1282.0771 354.32401 C 1280.7468 345.21401 1279.1505 322.68147 1278.4658 303.33377 C 1276.7489 254.81999 1277.0781 257.06879 1269.2802 240.48807 C 1262.6984 226.49305 1259.7955 219.02735 1258.2001 211.98416 C 1257.7828 210.14191 1254.8681 205.61418 1251.7216 201.92166 C 1247.3476 196.78864 1245.378 192.8686 1243.3564 185.27127 C 1241.0159 176.47581 1239.8584 174.48669 1233.2802 167.95291 C 1226.7722 161.48858 1211.5951 151.99979 1207.7626 151.99979 C 1207.0249 151.99979 1204.8948 150.80044 1203.0302 149.33377 C 1196.5075 144.20299 1195.0683 147.39497 1201.0009 153.83377 L 1204.6669 157.81229 L 1200.0009 154.15408 C 1180.0162 138.48638 1176.764 136.8536 1140.0009 124.02518 C 1127.9009 119.80289 1113.8002 114.51427 1108.6669 112.27323 C 1092.4369 105.18764 1079.7367 102.16447 1048.0009 97.827913 C 1009.6948 92.593522 983.99275 95.681575 937.33296 111.13065 C 927.43298 114.40852 916.03426 117.73353 912.00092 118.51932 C 907.96761 119.30511 897.46692 121.45305 888.66694 123.29276 C 879.86696 125.13245 870.06011 126.64443 866.87397 126.65213 C 863.68784 126.66013 850.48715 128.4973 837.53999 130.73416 C 814.40071 134.7319 813.24449 134.79998 769.66889 134.71658 C 715.18026 134.61231 706.16275 133.14243 691.19233 121.92752 C 684.71097 117.07209 665.66416 108.54184 654.66694 105.5701 C 630.54548 99.051851 594.90565 94.651794 566.66694 94.706819 z M 276.38569 107.5408 C 273.80597 107.60611 271.00522 108.52586 268.31538 110.44119 C 262.18687 114.80507 257.11115 126.47915 257.15717 136.10135 C 257.19667 144.34979 259.12564 149.78595 261.75678 149.06033 C 262.62397 148.82117 266.75842 147.48167 270.94428 146.08573 C 279.02868 143.38962 280.81612 141.35087 278.64741 137.29862 C 276.88461 134.00479 275.30087 118.6658 276.72358 118.6658 C 277.33079 118.6658 279.1724 119.92896 280.81538 121.47244 C 284.57373 125.00324 286.66694 123.78537 286.66694 118.06815 C 286.66694 111.39492 282.06106 107.39712 276.38569 107.5408 z M 330.60249 118.65408 C 331.07434 118.59365 331.82924 119.24844 332.84077 120.6658 C 345.19802 137.9809 349.33296 147.16188 349.33296 157.27127 C 349.33296 163.48951 348.77253 165.39477 346.24702 167.76737 C 342.50037 171.28715 337.17833 171.51208 334.24897 168.27518 C 333.05903 166.96031 331.13776 162.18517 329.97944 157.66385 C 328.07592 150.2337 328.0719 149.0605 329.93647 145.45487 C 332.24493 140.9908 332.55438 132.66882 330.70796 124.70487 C 329.81295 120.84454 329.81607 118.75481 330.60249 118.65408 z M 342.32319 144.17557 C 342.13604 144.17811 341.92939 144.20406 341.7021 144.24783 C 339.28178 144.71393 336.62161 155.10495 338.24897 157.73807 C 339.73651 160.14497 344.00092 153.23874 344.00092 148.42166 C 344.00092 145.22579 343.63323 144.15778 342.32319 144.17557 z M 1066.4833 185.1951 C 1068.1303 185.07636 1071.4571 190.68237 1075.8857 201.33377 C 1079.392 209.7671 1083.4805 218.76711 1084.9716 221.33377 C 1089.711 229.49158 1092.4978 238.46793 1091.1923 241.37674 C 1090.1848 243.62176 1089.1288 242.22752 1084.3544 232.3494 C 1081.2489 225.9241 1076.2464 217.4358 1073.2392 213.48807 C 1065.3493 203.13046 1061.9402 196.19137 1063.8193 194.31229 C 1064.6515 193.48002 1065.333 191.07563 1065.333 188.96854 C 1065.333 186.48559 1065.7348 185.24907 1066.4833 185.1951 z M 652.081 213.25174 C 653.09152 213.28324 653.07044 215.89069 651.96967 220.80252 C 651.16984 224.37154 649.97267 236.79656 649.30952 248.41385 C 647.52904 279.6054 650.7264 307.89668 658.24506 327.49002 C 659.65019 331.15173 656.15271 329.2293 653.44819 324.8533 C 647.78418 315.68874 644.14898 301.51587 641.42866 277.99979 C 640.58035 270.66646 639.0125 260.58433 637.94428 255.59549 C 636.11007 247.02921 636.14825 246.2508 638.65131 241.59549 C 640.10906 238.88433 643.14698 231.86645 645.40131 225.99979 C 647.65566 220.13312 650.05225 214.77407 650.72749 214.08963 C 651.29152 213.5179 651.74416 213.24124 652.081 213.25174 z M 61.475533 229.23221 C 61.911259 229.06696 63.794925 232.64921 65.600533 237.64041 C 70.630806 251.54545 71.852039 255.99979 70.633736 255.99979 C 69.952385 255.99979 68.433387 254.53276 67.258736 252.74002 C 66.084086 250.94727 64.624711 246.29858 64.014596 242.40799 C 63.40448 238.51741 62.463213 233.83312 61.922799 231.99979 C 61.379402 230.15634 61.277476 229.30732 61.475533 229.23221 z M 340.19819 234.16971 C 340.31327 234.18505 340.39999 234.23383 340.4521 234.31815 C 341.22292 235.56536 334.4117 249.68669 331.28022 253.33377 C 329.31113 255.62709 324.00092 270.80814 324.00092 274.14432 C 324.00092 275.37046 322.81517 278.83966 321.36811 281.8533 C 319.92105 284.86695 317.3526 290.88928 315.65913 295.23612 C 312.59948 303.08976 309.33296 306.46362 309.33296 301.76932 C 309.33296 299.33969 313.8353 282.8662 318.01655 269.99979 C 322.02838 257.65468 329.81324 242.7388 334.77046 237.89823 C 337.13926 235.58514 339.39266 234.06234 340.19819 234.16971 z M 198.39936 245.33377 C 196.81611 245.33377 197.10721 250.36988 198.74897 251.38455 C 199.52754 251.86574 200.71183 253.70059 201.38178 255.46268 C 202.56483 258.57435 205.33296 259.93986 205.33296 257.4119 C 205.33296 256.72184 204.73425 255.787 204.00092 255.33377 C 203.26758 254.88055 202.66694 253.16465 202.66694 251.52127 C 202.66694 248.55492 200.4447 245.33377 198.39936 245.33377 z M 55.66108 258.00369 C 54.473042 258.23022 55.398892 264.41027 58.903268 274.6658 C 62.877862 286.29742 81.9034 313.00832 94.377877 324.47244 C 97.685387 327.51207 103.40374 333.14979 107.08686 336.99979 C 113.95356 344.17757 116.00092 345.36834 116.00092 342.18338 C 116.00092 341.18373 112.85092 337.44468 109.00092 333.87479 C 92.551928 318.62242 69.80559 286.74965 60.920846 266.50369 C 58.277631 260.48052 56.473948 257.8487 55.66108 258.00369 z M 179.72553 261.5408 C 179.90346 261.54496 180.10591 261.58528 180.33296 261.65994 C 182.68736 262.43422 187.95126 272.07801 187.97749 275.6658 C 188.01639 280.99002 184.43657 278.8625 181.51069 271.82205 C 178.58319 264.77771 178.00557 261.5006 179.72553 261.5408 z M 264.92085 273.60916 C 265.4087 273.59941 265.27041 274.67006 264.706 277.35916 C 263.68641 282.21684 261.08316 285.97265 259.69624 284.58573 C 258.51215 283.40162 261.19705 276.44012 263.6103 274.43729 C 264.23861 273.91584 264.6653 273.61427 264.92085 273.60916 z M 159.06928 277.33377 C 157.45796 277.33377 157.18589 278.26446 157.84077 281.53885 C 158.30345 283.85229 159.35207 286.55229 160.17085 287.53885 C 162.40681 290.23305 166.66694 289.78023 166.66694 286.84744 C 166.66694 283.56486 161.69061 277.33377 159.06928 277.33377 z M 231.46772 277.53299 C 241.80049 277.54093 254.3212 283.54474 249.73921 288.12674 C 248.9199 288.94604 246.33391 288.44474 242.56342 286.73416 C 234.85767 283.23825 229.04368 283.3605 219.66694 287.21658 C 215.45028 288.95065 212.00092 289.89755 212.00092 289.32205 C 212.00092 287.67989 221.27355 279.95719 224.90131 278.57791 C 226.81575 277.85005 229.08324 277.53116 231.46772 277.53299 z M 237.68061 293.11112 C 240.33597 293.10851 243.38812 293.74509 247.05756 294.96463 C 251.60901 296.47731 255.57434 297.92166 255.87006 298.17362 C 256.71655 298.89486 243.65547 310.6658 242.00874 310.6658 C 241.19725 310.6658 239.96322 311.18618 239.26655 311.82205 C 238.03785 312.94351 225.81384 317.33377 223.91889 317.33377 C 223.40173 317.33377 222.61497 315.98377 222.1728 314.33377 C 220.67674 308.75129 221.32236 305.87424 225.27046 300.50565 C 228.98833 295.45014 232.61129 293.11608 237.68061 293.11112 z M 256.84663 316.46268 C 256.88955 316.46543 256.92393 316.47943 256.94819 316.50369 C 257.3364 316.8919 257.25089 319.35491 256.75874 321.9783 C 256.09845 325.49798 254.43224 327.78542 250.39936 330.70682 C 244.71319 334.82586 239.17967 335.59124 231.581 333.31033 C 229.51744 332.69093 226.96809 331.4695 225.91499 330.59549 C 222.32295 327.61437 223.99079 326.68535 229.19428 328.76737 C 236.76843 331.79794 243.47734 329.64359 250.62397 321.89041 C 253.52026 318.74829 256.20283 316.42144 256.84663 316.46268 z M 262.05366 320.03299 C 263.16886 319.93518 263.14195 322.4613 262.57319 332.52908 C 261.82034 345.85539 259.66733 353.25857 256.22163 354.3826 C 254.85638 354.82796 254.93433 354.01587 256.55561 350.88065 C 257.71656 348.63565 258.66694 345.86862 258.66694 344.73221 C 258.66694 341.53197 253.42313 342.24169 247.68452 346.21854 L 242.55756 349.77127 L 234.27827 347.58768 C 229.72501 346.38632 228.02783 345.68866 230.50678 346.0369 C 241.34539 347.5595 254.68711 338.39755 257.41694 327.55643 C 258.20575 324.42378 259.85999 321.22948 261.09272 320.45877 C 261.47928 320.2171 261.79631 320.05556 262.05366 320.03299 z M 183.55366 332.59744 C 184.24147 332.53093 184.4212 333.32761 184.15717 334.99979 C 184.07037 335.54979 185.46478 335.99979 187.25483 335.99979 C 192.67207 335.99979 192.13596 337.90405 185.57124 341.98612 C 182.13991 344.11975 176.64798 348.18936 173.36616 351.03104 C 170.01316 353.93432 167.17764 355.53383 166.8935 354.68143 C 166.6154 353.84711 167.49956 352.35077 168.85835 351.35721 C 170.21712 350.36364 170.93006 349.15159 170.44233 348.66385 C 169.9546 348.17612 168.35015 348.9826 166.87788 350.45487 C 164.3926 352.94013 159.62805 355.99979 158.24311 355.99979 C 157.91377 355.99979 157.28294 354.64979 156.84077 352.99979 C 156.39858 351.34979 156.02852 349.61358 156.0185 349.14041 C 156.0078 348.66724 160.95094 345.76233 167.00092 342.68533 C 173.05092 339.60837 179.35094 335.83994 181.00092 334.31229 C 182.17739 333.22306 183.0187 332.64917 183.55366 332.59744 z M 175.49116 343.99979 C 174.39116 343.99979 173.12017 344.60044 172.66694 345.33377 C 172.21371 346.06711 172.74276 346.6658 173.84272 346.6658 C 174.94272 346.6658 176.21371 346.06711 176.66694 345.33377 C 177.12017 344.60044 176.59112 343.99979 175.49116 343.99979 z M 1044.4716 355.10135 C 1042.2744 355.01521 1038.2671 360.26652 1033.163 369.99979 C 1028.6504 378.6051 1017.5209 395.86178 1008.3466 408.48026 C 1002.9394 415.9172 1001.3268 419.99979 1003.7939 419.99979 C 1007.2852 419.99979 1020.9521 430.74957 1023.3857 435.40994 C 1026.5111 441.3953 1036.1762 447.99361 1043.706 449.28104 C 1049.7927 450.32173 1061.5383 449.44979 1063.2822 447.82791 C 1064.099 447.06824 1063.7579 442.40458 1062.3408 434.98416 C 1061.1171 428.5762 1059.4301 417.93377 1058.5927 411.33377 C 1056.7542 396.84292 1047.3987 357.51771 1045.3017 355.46658 C 1045.0638 355.2339 1044.7855 355.11366 1044.4716 355.10135 z M 142.0185 384.41776 C 143.36079 384.42104 145.02583 384.5624 147.23139 384.80252 C 156.57945 385.82026 159.36928 386.99652 161.39155 390.77518 C 163.1059 393.97844 161.95048 400.49363 159.27436 402.71463 C 157.77838 403.95616 156.53061 403.56209 153.26264 400.81229 C 149.9726 398.04389 148.61995 397.62106 146.56928 398.71854 C 143.71312 400.24712 143.19157 403.99122 145.51069 406.31033 C 147.07837 407.87801 146.22938 411.99979 144.33881 411.99979 C 143.74564 411.99979 141.92566 411.06518 140.29585 409.92362 C 136.35296 407.16191 136.33457 399.90845 140.25678 394.6033 C 144.02592 389.5053 142.06183 386.63176 136.53022 389.15213 C 131.6417 391.37949 131.13044 390.21078 135.49311 386.77908 C 137.66956 385.0671 139.06546 384.41054 142.0185 384.41776 z M 506.90131 424.79471 C 507.5594 424.83482 509.5311 426.04436 511.84467 427.87674 C 514.69215 430.13198 519.21173 432.4317 521.8896 432.98807 C 524.56745 433.54446 526.75738 434.60044 526.75483 435.33377 C 526.74783 437.26177 521.1221 437.57188 518.00092 435.81619 C 514.33767 433.75556 506.66694 426.40707 506.66694 424.95877 C 506.66694 424.83669 506.74945 424.78545 506.90131 424.79471 z M 1002.8408 436.2576 C 999.12079 436.18172 995.09586 436.78789 990.26069 437.94315 C 981.88216 439.94498 978.66694 441.88832 978.66694 444.94705 C 978.66694 447.24346 989.84753 476.3825 992.71186 481.55057 C 997.62513 490.41545 1004.2288 510.5267 1007.3095 526.00955 C 1009.1623 535.32117 1011.0325 543.51357 1011.4658 544.21463 C 1012.6912 546.19735 1009.3518 582.40229 1007.1298 591.22635 C 1004.5524 601.46197 998.92969 612.52162 988.96381 626.96073 C 982.54375 636.26247 979.9775 638.90067 976.13569 640.14627 C 967.7375 642.86916 948.3175 653.13597 943.40522 657.44901 C 934.70422 665.08858 938.21041 671.99979 950.78608 671.99979 C 960.16769 671.99979 965.11577 670.26838 968.78022 665.70096 C 971.73408 662.01921 974.66694 662.45563 974.66694 666.57791 C 974.66694 670.42761 982.25948 673.52995 989.31538 672.56229 C 992.60569 672.11105 996.80636 670.89166 998.64936 669.8533 C 1000.4923 668.81495 1002.9325 667.30233 1004.0712 666.49002 C 1005.7229 665.31162 1007.0165 665.88848 1010.4775 669.3494 C 1014.7828 673.65474 1014.8867 673.68125 1024.4072 672.81815 C 1039.1403 671.4825 1041.6167 670.48918 1044.9775 664.57401 C 1047.9946 659.26372 1048.6118 655.08138 1047.1689 649.69901 C 1046.5979 647.56892 1045.0045 646.48616 1041.5205 645.85916 C 1034.2287 644.54691 1032.9387 642.99776 1033.9384 636.74588 C 1034.8093 631.2994 1039.4322 624.8247 1041.5263 626.11893 C 1042.153 626.50627 1042.6669 628.88851 1042.6669 631.4119 C 1042.6669 635.11096 1042.1509 635.99979 1040.0009 635.99979 C 1038.5343 635.99979 1037.333 636.56584 1037.333 637.2576 C 1037.333 638.83126 1042.6983 642.6658 1044.8994 642.6658 C 1046.6858 642.6658 1053.3693 632.76764 1069.6572 605.99979 C 1080.2183 588.6434 1080.9296 586.40876 1078.0458 579.6658 C 1077.1923 577.66998 1077.8068 577.33377 1082.2919 577.33377 C 1086.0312 577.33377 1088.3199 576.47312 1090.2685 574.33377 C 1094.0461 570.18629 1096.01 566.06886 1095.9501 562.42166 C 1095.8581 556.83849 1088.8856 542.69101 1085.333 540.87869 C 1083.1799 539.78029 1082.1461 538.26179 1082.4111 536.58963 C 1082.6367 535.16586 1083.3331 523.80042 1083.9599 511.33377 C 1084.5867 498.86713 1085.8417 485.46545 1086.749 481.55252 L 1088.3994 474.43729 L 1083.0947 469.1326 L 1077.79 463.82791 L 1065.2275 463.54862 C 1050.3864 463.21674 1044.8677 460.90544 1028.3427 448.11112 C 1017.733 439.89654 1011.0247 436.42454 1002.8408 436.2576 z M 598.27631 440.29666 C 598.98408 440.26599 600.03542 440.798 600.9521 441.71463 C 603.83399 444.59654 602.5666 445.86394 599.23725 443.42948 C 597.82527 442.39702 597.13383 441.08759 597.70014 440.52127 C 597.84172 440.37969 598.04039 440.30689 598.27631 440.29666 z M 630.14741 441.49979 C 631.76122 441.41753 630.95 442.96086 627.44428 446.05643 C 623.17831 449.82327 621.15037 450.6658 616.36616 450.6658 C 612.80134 450.6658 610.83137 450.14536 611.33296 449.33377 C 611.78618 448.60044 612.92005 447.99979 613.85249 447.99979 C 614.78493 447.99979 618.50073 446.50192 622.10835 444.67166 C 626.17137 442.61035 628.89222 441.56377 630.14741 441.49979 z M 651.18452 485.52713 C 650.44771 485.52379 649.61035 485.57021 648.66694 485.65213 C 645.0671 485.96474 644.68728 486.43397 644.86421 490.33377 C 645.0323 494.03908 644.61053 494.6658 641.95405 494.6658 C 639.98586 494.6658 638.52712 495.6757 637.97358 497.41971 C 637.49302 498.93382 636.63108 520.68452 636.05952 545.75369 L 635.02046 591.33377 L 628.37592 610.68143 C 624.72195 621.32292 621.05886 634.82294 620.2353 640.68143 C 618.81945 650.75318 618.34284 683.51444 619.581 685.6658 C 619.89754 686.2158 622.41644 686.6658 625.17866 686.6658 C 628.7029 686.6658 631.00267 685.771 632.88569 683.6658 C 638.51926 677.36755 641.37982 671.01386 641.22944 665.13846 C 640.70076 644.48212 641.05578 636.87244 642.95796 627.99979 C 650.9727 590.61527 651.24229 588.00362 651.37397 546.6658 C 651.48317 512.3993 651.82993 506.08089 654.06147 497.60526 C 656.58982 488.00228 656.34213 485.55055 651.18452 485.52713 z " />
  </g>
</svg>
